# xmcd
#
# Track frame offsets:
#	150
#	22622
#	41249
#	61786
#	81931
#	100869
#	116228
#	137854
#	170906
#	188512
#	207131
#	233091
#
# Disc length: 3499 seconds
#
# Revision: 1
# Processed by: cddbd v1.5.2PL0 Copyright (c) Steve Scherf et al.
# Submitted via: audiograbber 1.83.01
#
DISCID=9d0da90c
DTITLE=Mavis Staples - We'll Never Turn Back
DYEAR=1900
DGENRE=
TTITLE0=Down In Mississippi
TTITLE1=Eyes On The Prize
TTITLE2=We Shall Not Be Moved
TTITLE3=In The Mississippi River
TTITLE4=On My Way
TTITLE5=This Little Light Of Mine
TTITLE6=99 And 1/2
TTITLE7=My Own Eyes
TTITLE8=Turn Me Around
TTITLE9=We'll Never Turn Back
TTITLE10=I'll Be Rested
TTITLE11=Jesus Is On The Main Line
EXTD=
EXTT0=
EXTT1=
EXTT2=
EXTT3=
EXTT4=
EXTT5=
EXTT6=
EXTT7=
EXTT8=
EXTT9=
EXTT10=
EXTT11=
PLAYORDER=
